<?xml version="1.0" encoding="UTF-8"?>
<svg version="1.1" xmlns="http://www.w3.org/2000/svg" width="1024" height="1024">
<path d="M0,0 L253,0 L253,1 L291,5 L297,6 L298,4 L299,6 L339,13 L369,20 L394,27 L419,36 L439,45 L462,57 L478,68 L488,76 L498,85 L511,98 L521,111 L532,129 L539,143 L539,145 L542,146 L540,146 L546,162 L551,185 L552,192 L552,221 L550,236 L544,257 L534,278 L522,296 L514,306 L502,319 L493,328 L491,328 L491,330 L478,340 L467,348 L450,359 L421,374 L398,384 L365,395 L359,397 L358,399 L354,398 L337,402 L333,402 L332,406 L330,405 L331,404 L318,406 L287,411 L261,414 L248,414 L248,416 L233,416 L178,418 L133,419 L120,432 L109,446 L100,460 L92,475 L85,494 L79,520 L77,543 L77,554 L79,581 L85,617 L87,631 L88,653 L86,674 L81,693 L74,709 L63,727 L53,739 L46,747 L31,762 L17,773 L0,785 L-21,797 L-40,806 L-55,812 L-81,820 L-107,826 L-133,830 L-141,830 L-142,832 L-174,833 L-210,833 L-241,831 L-266,828 L-295,823 L-329,815 L-352,807 L-358,803 L-359,801 L-348,797 L-321,788 L-294,777 L-280,770 L-278,770 L-277,768 L-265,762 L-250,752 L-234,740 L-212,718 L-202,705 L-194,693 L-194,691 L-191,688 L-182,671 L-172,645 L-165,621 L-159,590 L-158,576 L-156,576 L-155,563 L-150,533 L-150,528 L-148,528 L-146,517 L-140,501 L-134,488 L-128,480 L-120,470 L-110,460 L-96,450 L-75,439 L-62,434 L-62,432 L-53,431 L-34,426 L-30,426 L-29,424 L-15,422 L22,417 L55,415 L128,413 L136,406 L139,402 L141,402 L143,398 L150,391 L154,385 L155,383 L160,378 L169,367 L178,354 L179,351 L183,346 L191,332 L199,315 L202,305 L204,304 L206,295 L211,274 L213,260 L213,232 L210,212 L207,200 L205,199 L204,190 L200,180 L198,179 L197,175 L195,174 L194,167 L190,159 L186,157 L187,154 L175,136 L171,132 L169,128 L158,116 L151,108 L138,96 L121,83 L105,72 L97,70 L99,68 L78,56 L59,46 L26,32 L1,23 L-27,15 L-50,9 L-52,8 L-52,6 Z M101,69 Z M188,156 Z M196,171 Z " fill="#F45861" transform="translate(390,0)"/>
<path d="M0,0 L35,0 L65,2 L86,5 L110,10 L119,13 L124,13 L128,16 L143,22 L159,31 L176,43 L188,54 L197,63 L201,67 L204,72 L214,87 L227,112 L236,136 L242,156 L247,177 L247,182 L249,183 L250,196 L252,214 L252,261 L249,277 L243,305 L232,338 L224,355 L224,358 L222,358 L220,364 L209,384 L193,408 L184,420 L171,436 L161,447 L154,455 L134,475 L133,477 L128,480 L115,492 L104,501 L90,512 L86,516 L82,518 L68,528 L51,539 L33,550 L11,562 L-11,571 L-19,572 L-19,569 L-14,564 L-3,550 L9,535 L20,521 L34,503 L48,483 L63,460 L76,437 L80,428 L81,425 L84,421 L93,401 L104,368 L109,342 L111,321 L111,310 L109,287 L104,263 L97,242 L85,217 L81,212 L78,210 L78,206 L69,193 L57,179 L42,164 L40,163 L40,161 L36,159 L21,147 L2,134 L-15,123 L-29,113 L-42,100 L-50,87 L-55,76 L-57,76 L-58,68 L-63,43 L-63,35 L-66,36 L-65,33 L-65,10 L-62,5 L-59,3 L-32,1 Z M80,209 Z " fill="#F45861" transform="translate(676,451)"/>
<path d="M0,0 L3,1 L-2,5 L-4,2 Z " fill="#CC4A54" transform="translate(35,799)"/>
<path d="M0,0 L1,0 L1,11 L0,11 Z " fill="#E55561" transform="translate(785,748)"/>
<path d="M0,0 L7,0 L7,1 L0,1 Z " fill="#E95760" transform="translate(463,413)"/>
<path d="M0,0 L1,0 L1,6 L0,6 Z " fill="#D8535C" transform="translate(943,194)"/>
<path d="M0,0 L2,0 L2,2 L-1,1 Z " fill="#DF555C" transform="translate(782,950)"/>
<path d="M0,0 L5,0 L5,1 L0,1 Z " fill="#DE505A" transform="translate(251,831)"/>
<path d="M0,0 L1,0 L1,5 L0,5 Z " fill="#E85661" transform="translate(784,739)"/>
<path d="M0,0 L2,0 L2,3 L0,2 Z " fill="#E4555E" transform="translate(211,656)"/>
<path d="M0,0 L2,1 L-1,3 Z " fill="#E3555F" transform="translate(721,620)"/>
<path d="M0,0 L1,0 L1,5 L0,5 Z " fill="#E3555F" transform="translate(611,489)"/>
<path d="M0,0 L1,2 L-3,1 Z " fill="#F05A64" transform="translate(724,449)"/>
<path d="M0,0 L5,0 L5,1 L0,1 Z " fill="#F05A63" transform="translate(643,415)"/>
<path d="M0,0 L5,0 L5,1 L0,1 Z " fill="#F15B65" transform="translate(656,414)"/>
<path d="M0,0 L1,0 L1,5 L0,5 Z " fill="#EA5862" transform="translate(602,235)"/>
<path d="M0,0 L1,0 L1,5 L0,5 Z " fill="#E85861" transform="translate(601,226)"/>
<path d="M0,0 L2,1 L1,4 Z " fill="#E75761" transform="translate(593,192)"/>
<path d="M0,0 L0,3 Z " fill="#E2565E" transform="translate(741,981)"/>
<path d="M0,0 L1,4 Z " fill="#E75661" transform="translate(785,778)"/>
<path d="M0,0 L1,4 Z " fill="#DE535C" transform="translate(919,756)"/>
<path d="M0,0 L3,1 L0,1 Z " fill="#E4555E" transform="translate(704,605)"/>
<path d="M0,0 L2,2 L-1,1 Z " fill="#E1555D" transform="translate(696,598)"/>
<path d="M0,0 L1,4 Z " fill="#E1555E" transform="translate(228,596)"/>
<path d="M0,0 L1,4 Z " fill="#E0555F" transform="translate(232,571)"/>
<path d="M0,0 L4,1 Z " fill="#F15A65" transform="translate(690,449)"/>
<path d="M0,0 L4,1 Z " fill="#EF5B64" transform="translate(724,403)"/>
<path d="M0,0 L4,1 Z " fill="#EB5A61" transform="translate(740,399)"/>
<path d="M0,0 L0,3 Z " fill="#E85762" transform="translate(561,360)"/>
<path d="M0,0 L0,3 Z " fill="#E65761" transform="translate(586,316)"/>
<path d="M0,0 L1,4 Z " fill="#E75761" transform="translate(597,204)"/>
<path d="M0,0 L2,1 L1,3 Z " fill="#E95560" transform="translate(561,132)"/>
<path d="M0,0 L1,2 L-1,1 Z " fill="#DF565E" transform="translate(751,974)"/>
<path d="M0,0 L1,2 L-1,1 Z " fill="#E1545E" transform="translate(761,866)"/>
<path d="M0,0 L3,1 Z " fill="#E1525C" transform="translate(265,829)"/>
<path d="M0,0 L1,2 L-1,1 Z " fill="#D95159" transform="translate(305,821)"/>
<path d="M0,0 L2,0 L1,2 Z " fill="#E6555F" transform="translate(779,718)"/>
<path d="M0,0 L2,1 L0,2 Z " fill="#E7565F" transform="translate(179,713)"/>
<path d="M0,0 Z " fill="#E75661" transform="translate(776,705)"/>
<path d="M0,0 L2,2 L0,2 Z " fill="#E2555F" transform="translate(192,689)"/>
<path d="M0,0 L1,2 L-1,1 Z " fill="#E55660" transform="translate(201,680)"/>
<path d="M0,0 L2,0 L1,2 Z " fill="#E4565F" transform="translate(763,677)"/>
<path d="M0,0 L2,2 L0,2 Z " fill="#E85760" transform="translate(737,636)"/>
<path d="M0,0 Z " fill="#E0555D" transform="translate(478,634)"/>
<path d="M0,0 Z " fill="#DD535D" transform="translate(236,545)"/>
<path d="M0,0 Z " fill="#E8565F" transform="translate(468,533)"/>
<path d="M0,0 Z " fill="#E55560" transform="translate(610,480)"/>
<path d="M0,0 Z " fill="#E65761" transform="translate(610,476)"/>
<path d="M0,0 L1,2 L-1,1 Z " fill="#E95660" transform="translate(494,454)"/>
<path d="M0,0 L3,1 Z " fill="#DB535E" transform="translate(336,429)"/>
<path d="M0,0 L3,1 Z " fill="#E65862" transform="translate(408,416)"/>
<path d="M0,0 L3,1 Z " fill="#EF5964" transform="translate(664,413)"/>
<path d="M0,0 L3,1 Z " fill="#F15C65" transform="translate(678,411)"/>
<path d="M0,0 L2,2 L0,2 Z " fill="#EF5863" transform="translate(724,406)"/>
<path d="M0,0 L3,1 Z " fill="#EF5B64" transform="translate(702,407)"/>
<path d="M0,0 L2,0 L1,2 Z " fill="#ED5962" transform="translate(753,396)"/>
<path d="M0,0 L3,1 Z " fill="#EC5962" transform="translate(771,390)"/>
<path d="M0,0 L1,2 L-1,1 Z " fill="#EB5862" transform="translate(778,388)"/>
<path d="M0,0 L2,2 L0,2 Z " fill="#E65761" transform="translate(587,312)"/>
<path d="M0,0 L1,2 L-1,1 Z " fill="#E85762" transform="translate(593,298)"/>
<path d="M0,0 Z " fill="#E85762" transform="translate(600,269)"/>
<path d="M0,0 Z " fill="#EA5861" transform="translate(602,252)"/>
<path d="M0,0 Z " fill="#E75861" transform="translate(602,244)"/>
<path d="M0,0 L2,0 L1,2 Z " fill="#E85862" transform="translate(595,201)"/>
<path d="M0,0 Z " fill="#E95660" transform="translate(592,187)"/>
<path d="M0,0 L2,2 L0,2 Z " fill="#E4535D" transform="translate(548,117)"/>
<path d="M0,0 L2,1 L0,2 Z " fill="#E4555E" transform="translate(539,109)"/>
<path d="M0,0 L2,2 L0,2 Z " fill="#E4545D" transform="translate(532,101)"/>
<path d="M0,0 L3,1 Z " fill="#F05962" transform="translate(676,3)"/>
<path d="M0,0 L2,1 Z " fill="#E2565F" transform="translate(702,1007)"/>
<path d="M0,0 L2,1 Z " fill="#E4575F" transform="translate(700,1006)"/>
<path d="M0,0 Z " fill="#E2575F" transform="translate(732,990)"/>
<path d="M0,0 L2,1 Z " fill="#E2575E" transform="translate(726,991)"/>
<path d="M0,0 L2,1 Z " fill="#E4575E" transform="translate(742,980)"/>
<path d="M0,0 L2,1 Z " fill="#E1555D" transform="translate(772,958)"/>
<path d="M0,0 Z " fill="#D7505B" transform="translate(887,834)"/>
<path d="M0,0 L2,1 Z " fill="#E0515D" transform="translate(259,830)"/>
<path d="M0,0 L2,1 Z " fill="#DE505A" transform="translate(128,829)"/>
<path d="M0,0 L2,1 Z " fill="#DD5158" transform="translate(274,828)"/>
<path d="M0,0 L2,1 Z " fill="#DB515A" transform="translate(107,826)"/>
<path d="M0,0 L2,1 Z " fill="#E4555F" transform="translate(777,821)"/>
<path d="M0,0 L2,1 Z " fill="#DA5158" transform="translate(307,821)"/>
<path d="M0,0 L2,1 Z " fill="#DA4E59" transform="translate(82,821)"/>
<path d="M0,0 L2,1 Z " fill="#DB5459" transform="translate(326,815)"/>
<path d="M0,0 L2,1 Z " fill="#D9535A" transform="translate(348,807)"/>
<path d="M0,0 L2,1 Z " fill="#D9515A" transform="translate(369,797)"/>
<path d="M0,0 Z " fill="#DA515B" transform="translate(911,782)"/>
<path d="M0,0 Z " fill="#E65561" transform="translate(785,773)"/>
<path d="M0,0 L2,1 Z " fill="#E15660" transform="translate(136,752)"/>
<path d="M0,0 L2,1 Z " fill="#E55661" transform="translate(146,745)"/>
<path d="M0,0 Z " fill="#D45158" transform="translate(444,741)"/>
<path d="M0,0 Z " fill="#DC525C" transform="translate(924,737)"/>
<path d="M0,0 Z " fill="#DD535D" transform="translate(926,726)"/>
<path d="M0,0 Z " fill="#E45760" transform="translate(781,725)"/>
<path d="M0,0 Z " fill="#DF535D" transform="translate(927,716)"/>
<path d="M0,0 Z " fill="#E75562" transform="translate(777,709)"/>
<path d="M0,0 Z " fill="#D85259" transform="translate(468,701)"/>
<path d="M0,0 Z " fill="#E3545E" transform="translate(189,700)"/>
<path d="M0,0 Z " fill="#E55560" transform="translate(772,694)"/>
<path d="M0,0 Z " fill="#E45660" transform="translate(771,692)"/>
<path d="M0,0 Z " fill="#DE525C" transform="translate(476,677)"/>
<path d="M0,0 L2,1 Z " fill="#E5575F" transform="translate(760,671)"/>
<path d="M0,0 Z " fill="#E75760" transform="translate(208,666)"/>
<path d="M0,0 Z " fill="#DE535D" transform="translate(478,663)"/>
<path d="M0,0 Z " fill="#E45660" transform="translate(210,661)"/>
<path d="M0,0 Z " fill="#E0525E" transform="translate(479,650)"/>
<path d="M0,0 Z " fill="#DE555D" transform="translate(927,649)"/>
<path d="M0,0 Z " fill="#E1535C" transform="translate(926,642)"/>
<path d="M0,0 Z " fill="#E9565F" transform="translate(736,634)"/>
<path d="M0,0 Z " fill="#E5555F" transform="translate(220,633)"/>
<path d="M0,0 Z " fill="#DD535C" transform="translate(923,624)"/>
<path d="M0,0 Z " fill="#E4555F" transform="translate(720,618)"/>
<path d="M0,0 L2,1 Z " fill="#E3535E" transform="translate(716,615)"/>
<path d="M0,0 L2,1 Z " fill="#E5555F" transform="translate(713,613)"/>
<path d="M0,0 Z " fill="#E6555E" transform="translate(470,586)"/>
<path d="M0,0 L2,1 Z " fill="#E0555C" transform="translate(659,574)"/>
<path d="M0,0 Z " fill="#E75660" transform="translate(468,565)"/>
<path d="M0,0 Z " fill="#DB535C" transform="translate(903,561)"/>
<path d="M0,0 L2,1 Z " fill="#DF555F" transform="translate(632,551)"/>
<path d="M0,0 Z " fill="#DA535E" transform="translate(241,521)"/>
<path d="M0,0 Z " fill="#E0555F" transform="translate(616,517)"/>
<path d="M0,0 Z " fill="#E45661" transform="translate(612,494)"/>
<path d="M0,0 Z " fill="#E9545F" transform="translate(478,486)"/>
<path d="M0,0 Z " fill="#E65762" transform="translate(609,468)"/>
<path d="M0,0 L2,1 Z " fill="#E75660" transform="translate(803,465)"/>
<path d="M0,0 L2,1 Z " fill="#EF5965" transform="translate(651,450)"/>
<path d="M0,0 L2,1 Z " fill="#ED5A63" transform="translate(700,449)"/>
<path d="M0,0 L2,1 Z " fill="#DA535E" transform="translate(292,449)"/>
<path d="M0,0 L2,1 Z " fill="#DE535C" transform="translate(323,434)"/>
<path d="M0,0 Z " fill="#EA5A61" transform="translate(516,426)"/>
<path d="M0,0 L2,1 Z " fill="#E1545F" transform="translate(383,419)"/>
<path d="M0,0 L2,1 Z " fill="#EF5B64" transform="translate(640,415)"/>
<path d="M0,0 L2,1 Z " fill="#E95561" transform="translate(495,412)"/>
<path d="M0,0 L2,1 Z " fill="#E95661" transform="translate(492,412)"/>
<path d="M0,0 L2,1 Z " fill="#E85662" transform="translate(489,412)"/>
<path d="M0,0 L2,1 Z " fill="#E65560" transform="translate(481,412)"/>
<path d="M0,0 Z " fill="#F05964" transform="translate(687,410)"/>
<path d="M0,0 Z " fill="#EF5A64" transform="translate(684,410)"/>
<path d="M0,0 L2,1 Z " fill="#F25B65" transform="translate(713,405)"/>
<path d="M0,0 L2,1 Z " fill="#E75862" transform="translate(520,405)"/>
<path d="M0,0 L2,1 Z " fill="#E65A60" transform="translate(790,383)"/>
<path d="M0,0 L2,1 Z " fill="#EB5860" transform="translate(794,382)"/>
<path d="M0,0 Z " fill="#EA5662" transform="translate(576,338)"/>
<path d="M0,0 Z " fill="#E55861" transform="translate(578,333)"/>
<path d="M0,0 Z " fill="#EC5963" transform="translate(584,322)"/>
<path d="M0,0 L2,1 Z " fill="#CF4D57" transform="translate(901,319)"/>
<path d="M0,0 Z " fill="#EB5661" transform="translate(594,296)"/>
<path d="M0,0 Z " fill="#D7525A" transform="translate(919,286)"/>
<path d="M0,0 Z " fill="#E95762" transform="translate(601,260)"/>
<path d="M0,0 Z " fill="#DD545D" transform="translate(940,238)"/>
<path d="M0,0 Z " fill="#DB545E" transform="translate(943,218)"/>
<path d="M0,0 Z " fill="#D9545D" transform="translate(943,212)"/>
<path d="M0,0 Z " fill="#DB535C" transform="translate(942,190)"/>
<path d="M0,0 Z " fill="#DC545C" transform="translate(942,186)"/>
<path d="M0,0 Z " fill="#DB515B" transform="translate(940,174)"/>
<path d="M0,0 Z " fill="#DE525B" transform="translate(935,157)"/>
<path d="M0,0 Z " fill="#E0535D" transform="translate(934,154)"/>
<path d="M0,0 Z " fill="#E65460" transform="translate(576,154)"/>
<path d="M0,0 Z " fill="#DB5158" transform="translate(916,117)"/>
<path d="M0,0 L2,1 Z " fill="#DF525B" transform="translate(897,93)"/>
<path d="M0,0 L2,1 Z " fill="#DC535C" transform="translate(457,52)"/>
<path d="M0,0 L2,1 Z " fill="#DE545C" transform="translate(448,47)"/>
<path d="M0,0 L2,1 Z " fill="#DC515A" transform="translate(446,46)"/>
<path d="M0,0 Z " fill="#DC525C" transform="translate(426,37)"/>
<path d="M0,0 L2,1 Z " fill="#DA505A" transform="translate(388,23)"/>
<path d="M0,0 L2,1 Z " fill="#C34950" transform="translate(351,13)"/>
<path d="M0,0 L2,1 Z " fill="#ED5862" transform="translate(720,10)"/>
<path d="M0,0 L2,1 Z " fill="#EE5860" transform="translate(716,9)"/>
<path d="M0,0 L2,1 Z " fill="#F25A64" transform="translate(658,1)"/>
<path d="M0,0 Z " fill="#DF555D" transform="translate(685,1014)"/>
<path d="M0,0 Z " fill="#E25660" transform="translate(692,1011)"/>
<path d="M0,0 Z " fill="#E3555F" transform="translate(708,1006)"/>
<path d="M0,0 Z " fill="#000000" transform="translate(468,1006)"/>
<path d="M0,0 Z " fill="#080000" transform="translate(268,1006)"/>
<path d="M0,0 Z " fill="#E3575F" transform="translate(705,1005)"/>
<path d="M0,0 Z " fill="#CA4A53" transform="translate(668,1005)"/>
<path d="M0,0 Z " fill="#020000" transform="translate(1006,1003)"/>
<path d="M0,0 Z " fill="#E45461" transform="translate(715,998)"/>
<path d="M0,0 Z " fill="#DE545F" transform="translate(735,989)"/>
<path d="M0,0 Z " fill="#E4555D" transform="translate(729,989)"/>
<path d="M0,0 Z " fill="#E35560" transform="translate(733,987)"/>
<path d="M0,0 Z " fill="#E3575E" transform="translate(734,986)"/>
<path d="M0,0 Z " fill="#DF555D" transform="translate(745,981)"/>
<path d="M0,0 Z " fill="#DA525D" transform="translate(688,979)"/>
<path d="M0,0 Z " fill="#DC505E" transform="translate(689,978)"/>
<path d="M0,0 Z " fill="#DC515B" transform="translate(691,976)"/>
<path d="M0,0 Z " fill="#DC555D" transform="translate(757,975)"/>
<path d="M0,0 Z " fill="#250A0B" transform="translate(924,974)"/>
<path d="M0,0 Z " fill="#E0565D" transform="translate(753,973)"/>
<path d="M0,0 Z " fill="#E0585D" transform="translate(754,972)"/>
<path d="M0,0 Z " fill="#DF555E" transform="translate(756,971)"/>
<path d="M0,0 Z " fill="#160607" transform="translate(550,971)"/>
<path d="M0,0 Z " fill="#DB535C" transform="translate(696,969)"/>
<path d="M0,0 Z " fill="#DF575F" transform="translate(762,966)"/>
<path d="M0,0 Z " fill="#060100" transform="translate(404,966)"/>
<path d="M0,0 Z " fill="#D9525B" transform="translate(774,963)"/>
<path d="M0,0 Z " fill="#E4555D" transform="translate(771,959)"/>
<path d="M0,0 Z " fill="#DD565D" transform="translate(775,957)"/>
<path d="M0,0 Z " fill="#6E282C" transform="translate(868,950)"/>
<path d="M0,0 Z " fill="#D8545D" transform="translate(788,950)"/>
<path d="M0,0 Z " fill="#DC545E" transform="translate(789,945)"/>
<path d="M0,0 Z " fill="#E2525E" transform="translate(715,944)"/>
<path d="M0,0 Z " fill="#DE545C" transform="translate(791,943)"/>
<path d="M0,0 Z " fill="#632328" transform="translate(884,942)"/>
<path d="M0,0 Z " fill="#140605" transform="translate(556,934)"/>
<path d="M0,0 Z " fill="#E2525C" transform="translate(724,931)"/>
<path d="M0,0 Z " fill="#DC535D" transform="translate(725,929)"/>
<path d="M0,0 Z " fill="#B8464D" transform="translate(836,926)"/>
<path d="M0,0 Z " fill="#220B0D" transform="translate(588,926)"/>
<path d="M0,0 Z " fill="#140506" transform="translate(396,926)"/>
<path d="M0,0 Z " fill="#2A0C0F" transform="translate(324,926)"/>
<path d="M0,0 Z " fill="#2D0C10" transform="translate(308,926)"/>
<path d="M0,0 Z " fill="#260A0D" transform="translate(44,926)"/>
<path d="M0,0 Z " fill="#DE525C" transform="translate(811,925)"/>
<path d="M0,0 Z " fill="#DD545D" transform="translate(812,924)"/>
<path d="M0,0 Z " fill="#DD545E" transform="translate(728,923)"/>
<path d="M0,0 Z " fill="#DF545E" transform="translate(730,922)"/>
<path d="M0,0 Z " fill="#DD545B" transform="translate(818,918)"/>
<path d="M0,0 Z " fill="#120403" transform="translate(556,918)"/>
<path d="M0,0 Z " fill="#20090A" transform="translate(380,918)"/>
<path d="M0,0 Z " fill="#DD565E" transform="translate(736,912)"/>
<path d="M0,0 Z " fill="#D9525B" transform="translate(826,910)"/>
<path d="M0,0 Z " fill="#DF5360" transform="translate(738,909)"/>
<path d="M0,0 Z " fill="#E3535D" transform="translate(739,908)"/>
<path d="M0,0 Z " fill="#DE545E" transform="translate(740,905)"/>
<path d="M0,0 Z " fill="#D5525A" transform="translate(837,903)"/>
<path d="M0,0 Z " fill="#D9525A" transform="translate(835,901)"/>
<path d="M0,0 Z " fill="#E3575F" transform="translate(744,899)"/>
<path d="M0,0 Z " fill="#E25360" transform="translate(745,897)"/>
<path d="M0,0 Z " fill="#150404" transform="translate(468,894)"/>
<path d="M0,0 Z " fill="#A23E43" transform="translate(877,892)"/>
<path d="M0,0 Z " fill="#E0555D" transform="translate(749,889)"/>
<path d="M0,0 Z " fill="#DC525A" transform="translate(847,887)"/>
<path d="M0,0 Z " fill="#6F272E" transform="translate(252,886)"/>
<path d="M0,0 Z " fill="#D9525A" transform="translate(850,884)"/>
<path d="M0,0 Z " fill="#DF545E" transform="translate(752,883)"/>
<path d="M0,0 Z " fill="#E1545F" transform="translate(753,882)"/>
<path d="M0,0 Z " fill="#DB515A" transform="translate(855,878)"/>
<path d="M0,0 Z " fill="#DB535C" transform="translate(861,871)"/>
<path d="M0,0 Z " fill="#A74046" transform="translate(892,870)"/>
<path d="M0,0 Z " fill="#5F2226" transform="translate(20,862)"/>
<path d="M0,0 Z " fill="#DF565E" transform="translate(763,861)"/>
<path d="M0,0 Z " fill="#E1545E" transform="translate(764,859)"/>
<path d="M0,0 Z " fill="#812E34" transform="translate(319,859)"/>
<path d="M0,0 Z " fill="#E1565E" transform="translate(765,857)"/>
<path d="M0,0 Z " fill="#C54C55" transform="translate(884,854)"/>
<path d="M0,0 Z " fill="#270B0D" transform="translate(620,854)"/>
<path d="M0,0 Z " fill="#E5595F" transform="translate(768,850)"/>
<path d="M0,0 Z " fill="#DD515B" transform="translate(878,847)"/>
<path d="M0,0 Z " fill="#DA5259" transform="translate(883,838)"/>
<path d="M0,0 Z " fill="#E3555F" transform="translate(772,838)"/>
<path d="M0,0 Z " fill="#150303" transform="translate(548,838)"/>
<path d="M0,0 Z " fill="#622428" transform="translate(412,838)"/>
<path d="M0,0 Z " fill="#A23D45" transform="translate(332,838)"/>
<path d="M0,0 Z " fill="#D9505B" transform="translate(885,835)"/>
<path d="M0,0 Z " fill="#E3565E" transform="translate(774,834)"/>
<path d="M0,0 Z " fill="#DC515A" transform="translate(212,834)"/>
<path d="M0,0 Z " fill="#DE545B" transform="translate(226,833)"/>
<path d="M0,0 Z " fill="#D94E58" transform="translate(887,831)"/>
<path d="M0,0 Z " fill="#E0525A" transform="translate(147,831)"/>
<path d="M0,0 Z " fill="#DD535B" transform="translate(264,830)"/>
<path d="M0,0 Z " fill="#DF525B" transform="translate(132,830)"/>
<path d="M0,0 Z " fill="#DC525A" transform="translate(121,829)"/>
<path d="M0,0 Z " fill="#E25662" transform="translate(776,827)"/>
<path d="M0,0 Z " fill="#D95259" transform="translate(282,827)"/>
<path d="M0,0 Z " fill="#DB535B" transform="translate(279,827)"/>
<path d="M0,0 Z " fill="#DB4E59" transform="translate(114,827)"/>
<path d="M0,0 Z " fill="#D85359" transform="translate(891,825)"/>
<path d="M0,0 Z " fill="#D84F5A" transform="translate(892,823)"/>
<path d="M0,0 Z " fill="#E0525A" transform="translate(300,823)"/>
<path d="M0,0 Z " fill="#DE4F59" transform="translate(93,823)"/>
<path d="M0,0 Z " fill="#DB5059" transform="translate(91,823)"/>
<path d="M0,0 Z " fill="#CC4E56" transform="translate(900,822)"/>
<path d="M0,0 Z " fill="#D94F58" transform="translate(88,822)"/>
<path d="M0,0 Z " fill="#D94F5A" transform="translate(84,822)"/>
<path d="M0,0 Z " fill="#D34E57" transform="translate(76,822)"/>
<path d="M0,0 Z " fill="#D74F58" transform="translate(80,821)"/>
<path d="M0,0 Z " fill="#D65058" transform="translate(314,820)"/>
<path d="M0,0 Z " fill="#D74F59" transform="translate(311,820)"/>
<path d="M0,0 Z " fill="#D84F58" transform="translate(77,820)"/>
<path d="M0,0 Z " fill="#D74E59" transform="translate(74,819)"/>
<path d="M0,0 Z " fill="#D34E56" transform="translate(72,819)"/>
<path d="M0,0 Z " fill="#E05661" transform="translate(778,818)"/>
<path d="M0,0 Z " fill="#D95059" transform="translate(318,818)"/>
<path d="M0,0 Z " fill="#DC515B" transform="translate(316,818)"/>
<path d="M0,0 Z " fill="#D24F56" transform="translate(56,814)"/>
<path d="M0,0 Z " fill="#DD525A" transform="translate(333,813)"/>
<path d="M0,0 Z " fill="#CE4B56" transform="translate(49,812)"/>
<path d="M0,0 Z " fill="#CC4A55" transform="translate(44,810)"/>
<path d="M0,0 Z " fill="#C44A52" transform="translate(36,807)"/>
<path d="M0,0 Z " fill="#DB525A" transform="translate(355,804)"/>
<path d="M0,0 Z " fill="#E3565E" transform="translate(782,803)"/>
<path d="M0,0 Z " fill="#DD535A" transform="translate(365,799)"/>
<path d="M0,0 Z " fill="#D6525A" transform="translate(372,798)"/>
<path d="M0,0 Z " fill="#D85258" transform="translate(368,798)"/>
<path d="M0,0 Z " fill="#D9525B" transform="translate(905,797)"/>
<path d="M0,0 Z " fill="#DB525B" transform="translate(371,796)"/>
<path d="M0,0 Z " fill="#CD4B54" transform="translate(43,793)"/>
<path d="M0,0 Z " fill="#DF545D" transform="translate(908,790)"/>
<path d="M0,0 Z " fill="#E6545F" transform="translate(784,789)"/>
<path d="M0,0 Z " fill="#D8515B" transform="translate(386,788)"/>
<path d="M0,0 Z " fill="#DD555E" transform="translate(64,787)"/>
<path d="M0,0 Z " fill="#E65662" transform="translate(784,785)"/>
<path d="M0,0 Z " fill="#E3515E" transform="translate(72,785)"/>
<path d="M0,0 Z " fill="#E3535F" transform="translate(75,784)"/>
<path d="M0,0 Z " fill="#DA5259" transform="translate(393,783)"/>
<path d="M0,0 Z " fill="#D9555B" transform="translate(396,782)"/>
<path d="M0,0 Z " fill="#E0525E" transform="translate(82,781)"/>
<path d="M0,0 Z " fill="#E5545F" transform="translate(87,779)"/>
<path d="M0,0 Z " fill="#E55460" transform="translate(92,777)"/>
<path d="M0,0 Z " fill="#E45660" transform="translate(785,776)"/>
<path d="M0,0 Z " fill="#D85358" transform="translate(406,775)"/>
<path d="M0,0 Z " fill="#D1525A" transform="translate(412,774)"/>
<path d="M0,0 Z " fill="#DC5159" transform="translate(407,773)"/>
<path d="M0,0 Z " fill="#E5555F" transform="translate(104,771)"/>
<path d="M0,0 Z " fill="#D9535C" transform="translate(412,769)"/>
<path d="M0,0 Z " fill="#E3555F" transform="translate(108,769)"/>
<path d="M0,0 Z " fill="#D6525C" transform="translate(415,767)"/>
<path d="M0,0 Z " fill="#DF525B" transform="translate(916,766)"/>
<path d="M0,0 Z " fill="#1F0707" transform="translate(596,766)"/>
<path d="M0,0 Z " fill="#E65560" transform="translate(117,765)"/>
<path d="M0,0 Z " fill="#E75660" transform="translate(786,764)"/>
<path d="M0,0 Z " fill="#D65359" transform="translate(420,763)"/>
<path d="M0,0 Z " fill="#E85460" transform="translate(120,763)"/>
<path d="M0,0 Z " fill="#D7545A" transform="translate(422,762)"/>
<path d="M0,0 Z " fill="#D9545A" transform="translate(424,759)"/>
<path d="M0,0 Z " fill="#DA515A" transform="translate(426,757)"/>
<path d="M0,0 Z " fill="#E45960" transform="translate(129,757)"/>
<path d="M0,0 Z " fill="#DA535A" transform="translate(429,755)"/>
<path d="M0,0 Z " fill="#DF565F" transform="translate(128,755)"/>
<path d="M0,0 Z " fill="#E2565F" transform="translate(134,754)"/>
<path d="M0,0 Z " fill="#D95359" transform="translate(432,751)"/>
<path d="M0,0 Z " fill="#B7464E" transform="translate(756,750)"/>
<path d="M0,0 Z " fill="#DD515D" transform="translate(921,749)"/>
<path d="M0,0 Z " fill="#E65660" transform="translate(784,747)"/>
<path d="M0,0 Z " fill="#E65660" transform="translate(144,747)"/>
<path d="M0,0 Z " fill="#DC535E" transform="translate(922,745)"/>
<path d="M0,0 Z " fill="#280B0A" transform="translate(596,742)"/>
<path d="M0,0 Z " fill="#E4575E" transform="translate(153,740)"/>
<path d="M0,0 Z " fill="#D14F57" transform="translate(447,735)"/>
<path d="M0,0 Z " fill="#D54F59" transform="translate(449,733)"/>
<path d="M0,0 Z " fill="#DE5159" transform="translate(453,727)"/>
<path d="M0,0 Z " fill="#341111" transform="translate(636,726)"/>
<path d="M0,0 Z " fill="#BF4852" transform="translate(132,726)"/>
<path d="M0,0 Z " fill="#E35760" transform="translate(170,721)"/>
<path d="M0,0 Z " fill="#DC535E" transform="translate(927,719)"/>
<path d="M0,0 Z " fill="#EA585E" transform="translate(779,716)"/>
<path d="M0,0 Z " fill="#E75760" transform="translate(177,716)"/>
<path d="M0,0 Z " fill="#D64F59" transform="translate(461,715)"/>
<path d="M0,0 Z " fill="#E65862" transform="translate(178,715)"/>
<path d="M0,0 Z " fill="#E7595F" transform="translate(176,715)"/>
<path d="M0,0 Z " fill="#E65760" transform="translate(778,713)"/>
<path d="M0,0 Z " fill="#D44D55" transform="translate(463,711)"/>
<path d="M0,0 Z " fill="#DE565F" transform="translate(772,710)"/>
<path d="M0,0 Z " fill="#CE4F58" transform="translate(468,710)"/>
<path d="M0,0 Z " fill="#E55862" transform="translate(184,707)"/>
<path d="M0,0 Z " fill="#E65662" transform="translate(185,706)"/>
<path d="M0,0 Z " fill="#E55861" transform="translate(186,705)"/>
<path d="M0,0 Z " fill="#E45861" transform="translate(184,705)"/>
<path d="M0,0 Z " fill="#E55861" transform="translate(185,704)"/>
<path d="M0,0 Z " fill="#E5545F" transform="translate(188,702)"/>
<path d="M0,0 Z " fill="#DD545E" transform="translate(929,701)"/>
<path d="M0,0 Z " fill="#632527" transform="translate(70,699)"/>
<path d="M0,0 Z " fill="#E45860" transform="translate(190,698)"/>
<path d="M0,0 Z " fill="#DF575D" transform="translate(929,693)"/>
<path d="M0,0 Z " fill="#D9545A" transform="translate(471,693)"/>
<path d="M0,0 Z " fill="#E35561" transform="translate(194,693)"/>
<path d="M0,0 Z " fill="#E55760" transform="translate(770,691)"/>
<path d="M0,0 Z " fill="#E4585F" transform="translate(196,689)"/>
<path d="M0,0 Z " fill="#E65760" transform="translate(768,686)"/>
<path d="M0,0 Z " fill="#D5535A" transform="translate(476,686)"/>
<path d="M0,0 Z " fill="#DA545B" transform="translate(474,685)"/>
<path d="M0,0 Z " fill="#E65761" transform="translate(200,683)"/>
<path d="M0,0 Z " fill="#E65660" transform="translate(205,673)"/>
<path d="M0,0 Z " fill="#E5565F" transform="translate(760,669)"/>
<path d="M0,0 Z " fill="#E55660" transform="translate(209,664)"/>
<path d="M0,0 Z " fill="#E5545F" transform="translate(757,663)"/>
<path d="M0,0 Z " fill="#E35561" transform="translate(753,662)"/>
<path d="M0,0 Z " fill="#5F2225" transform="translate(636,662)"/>
<path d="M0,0 Z " fill="#E5565D" transform="translate(211,660)"/>
<path d="M0,0 Z " fill="#E75661" transform="translate(754,659)"/>
<path d="M0,0 Z " fill="#E65861" transform="translate(752,659)"/>
<path d="M0,0 Z " fill="#E15760" transform="translate(208,659)"/>
<path d="M0,0 Z " fill="#E1545E" transform="translate(209,658)"/>
<path d="M0,0 Z " fill="#E55560" transform="translate(753,657)"/>
<path d="M0,0 Z " fill="#E7575F" transform="translate(752,656)"/>
<path d="M0,0 Z " fill="#D7515C" transform="translate(740,654)"/>
<path d="M0,0 Z " fill="#DF555D" transform="translate(927,653)"/>
<path d="M0,0 Z " fill="#E65762" transform="translate(749,651)"/>
<path d="M0,0 Z " fill="#E5565F" transform="translate(747,649)"/>
<path d="M0,0 Z " fill="#E65662" transform="translate(745,646)"/>
<path d="M0,0 Z " fill="#DC555E" transform="translate(737,645)"/>
<path d="M0,0 Z " fill="#E2555E" transform="translate(216,645)"/>
<path d="M0,0 Z " fill="#E95460" transform="translate(218,641)"/>
<path d="M0,0 Z " fill="#EC535E" transform="translate(740,639)"/>
<path d="M0,0 Z " fill="#D1505B" transform="translate(932,638)"/>
<path d="M0,0 Z " fill="#EA5660" transform="translate(739,638)"/>
<path d="M0,0 Z " fill="#DD545E" transform="translate(732,638)"/>
<path d="M0,0 Z " fill="#E2565F" transform="translate(219,637)"/>
<path d="M0,0 Z " fill="#1B0707" transform="translate(27,637)"/>
<path d="M0,0 Z " fill="#DD535D" transform="translate(926,635)"/>
<path d="M0,0 Z " fill="#DB545E" transform="translate(925,632)"/>
<path d="M0,0 Z " fill="#E4515B" transform="translate(733,631)"/>
<path d="M0,0 Z " fill="#DF535D" transform="translate(924,630)"/>
<path d="M0,0 Z " fill="#E25760" transform="translate(729,629)"/>
<path d="M0,0 Z " fill="#E5575F" transform="translate(728,627)"/>
<path d="M0,0 Z " fill="#E1565F" transform="translate(222,626)"/>
<path d="M0,0 Z " fill="#E3535D" transform="translate(725,623)"/>
<path d="M0,0 Z " fill="#DE555E" transform="translate(922,621)"/>
<path d="M0,0 Z " fill="#E75860" transform="translate(224,619)"/>
<path d="M0,0 Z " fill="#E0545E" transform="translate(476,617)"/>
<path d="M0,0 Z " fill="#E35760" transform="translate(224,617)"/>
<path d="M0,0 Z " fill="#E5535F" transform="translate(715,614)"/>
<path d="M0,0 Z " fill="#E3545D" transform="translate(475,613)"/>
<path d="M0,0 Z " fill="#E3545F" transform="translate(225,613)"/>
<path d="M0,0 Z " fill="#E8555E" transform="translate(712,611)"/>
<path d="M0,0 Z " fill="#E2555F" transform="translate(919,609)"/>
<path d="M0,0 Z " fill="#E4575F" transform="translate(474,609)"/>
<path d="M0,0 Z " fill="#E3555E" transform="translate(707,607)"/>
<path d="M0,0 Z " fill="#E0555C" transform="translate(918,603)"/>
<path d="M0,0 Z " fill="#DC515B" transform="translate(917,600)"/>
<path d="M0,0 Z " fill="#DF525C" transform="translate(916,598)"/>
<path d="M0,0 Z " fill="#DE555D" transform="translate(692,598)"/>
<path d="M0,0 Z " fill="#E0545E" transform="translate(693,596)"/>
<path d="M0,0 Z " fill="#E0555D" transform="translate(228,594)"/>
<path d="M0,0 Z " fill="#E1555F" transform="translate(229,593)"/>
<path d="M0,0 Z " fill="#DB535E" transform="translate(914,589)"/>
<path d="M0,0 Z " fill="#E65660" transform="translate(683,589)"/>
<path d="M0,0 Z " fill="#E4555E" transform="translate(471,589)"/>
<path d="M0,0 Z " fill="#E45460" transform="translate(681,588)"/>
<path d="M0,0 Z " fill="#E3555D" transform="translate(680,587)"/>
<path d="M0,0 Z " fill="#E1595E" transform="translate(673,583)"/>
<path d="M0,0 Z " fill="#E1585C" transform="translate(672,582)"/>
<path d="M0,0 Z " fill="#DA555B" transform="translate(911,581)"/>
<path d="M0,0 Z " fill="#DD515D" transform="translate(910,579)"/>
<path d="M0,0 Z " fill="#DB525E" transform="translate(909,575)"/>
<path d="M0,0 Z " fill="#DD555B" transform="translate(661,575)"/>
<path d="M0,0 Z " fill="#DA535D" transform="translate(656,575)"/>
<path d="M0,0 Z " fill="#DF545D" transform="translate(908,574)"/>
<path d="M0,0 Z " fill="#E3535E" transform="translate(658,573)"/>
<path d="M0,0 Z " fill="#E5555D" transform="translate(657,572)"/>
<path d="M0,0 Z " fill="#DF565F" transform="translate(232,569)"/>
<path d="M0,0 Z " fill="#D75159" transform="translate(645,567)"/>
<path d="M0,0 Z " fill="#D7535A" transform="translate(644,566)"/>
<path d="M0,0 Z " fill="#E1565E" transform="translate(233,565)"/>
<path d="M0,0 Z " fill="#D9535C" transform="translate(645,564)"/>
<path d="M0,0 Z " fill="#DA525A" transform="translate(642,564)"/>
<path d="M0,0 Z " fill="#DD535C" transform="translate(642,561)"/>
<path d="M0,0 Z " fill="#D9535B" transform="translate(640,561)"/>
<path d="M0,0 Z " fill="#E65860" transform="translate(468,561)"/>
<path d="M0,0 Z " fill="#DD545C" transform="translate(902,559)"/>
<path d="M0,0 Z " fill="#D9535A" transform="translate(632,555)"/>
<path d="M0,0 Z " fill="#D8535B" transform="translate(628,550)"/>
<path d="M0,0 Z " fill="#D6515A" transform="translate(232,549)"/>
<path d="M0,0 Z " fill="#DD535C" transform="translate(629,545)"/>
<path d="M0,0 Z " fill="#E0545C" transform="translate(628,543)"/>
<path d="M0,0 Z " fill="#DF555E" transform="translate(627,542)"/>
<path d="M0,0 Z " fill="#E0555E" transform="translate(626,541)"/>
<path d="M0,0 Z " fill="#DB525B" transform="translate(892,540)"/>
<path d="M0,0 Z " fill="#E1575E" transform="translate(625,539)"/>
<path d="M0,0 Z " fill="#DE545D" transform="translate(890,537)"/>
<path d="M0,0 Z " fill="#E0535E" transform="translate(624,537)"/>
<path d="M0,0 Z " fill="#DE525D" transform="translate(886,531)"/>
<path d="M0,0 Z " fill="#E1545D" transform="translate(621,531)"/>
<path d="M0,0 Z " fill="#0A0100" transform="translate(54,531)"/>
<path d="M0,0 Z " fill="#4B1C1D" transform="translate(988,526)"/>
<path d="M0,0 Z " fill="#D8525C" transform="translate(240,525)"/>
<path d="M0,0 Z " fill="#E2555D" transform="translate(618,523)"/>
<path d="M0,0 Z " fill="#D8535A" transform="translate(882,521)"/>
<path d="M0,0 Z " fill="#E2535F" transform="translate(617,521)"/>
<path d="M0,0 Z " fill="#E75660" transform="translate(470,519)"/>
<path d="M0,0 Z " fill="#E7575E" transform="translate(471,511)"/>
<path d="M0,0 Z " fill="#DA535E" transform="translate(244,510)"/>
<path d="M0,0 Z " fill="#DE525C" transform="translate(868,508)"/>
<path d="M0,0 Z " fill="#D7535C" transform="translate(246,506)"/>
<path d="M0,0 Z " fill="#DC545D" transform="translate(865,505)"/>
<path d="M0,0 Z " fill="#E65962" transform="translate(476,502)"/>
<path d="M0,0 Z " fill="#E2545E" transform="translate(860,500)"/>
<path d="M0,0 Z " fill="#E6565F" transform="translate(612,499)"/>
<path d="M0,0 Z " fill="#E65461" transform="translate(612,497)"/>
<path d="M0,0 Z " fill="#D75059" transform="translate(855,490)"/>
<path d="M0,0 Z " fill="#C24A53" transform="translate(868,486)"/>
<path d="M0,0 Z " fill="#CC4E57" transform="translate(564,486)"/>
<path d="M0,0 Z " fill="#DF535E" transform="translate(492,486)"/>
<path d="M0,0 Z " fill="#E8575E" transform="translate(479,484)"/>
<path d="M0,0 Z " fill="#CC4E56" transform="translate(852,478)"/>
<path d="M0,0 Z " fill="#D05058" transform="translate(532,478)"/>
<path d="M0,0 Z " fill="#E85860" transform="translate(484,478)"/>
<path d="M0,0 Z " fill="#E95861" transform="translate(481,478)"/>
<path d="M0,0 Z " fill="#E95863" transform="translate(482,477)"/>
<path d="M0,0 Z " fill="#DA535B" transform="translate(264,475)"/>
<path d="M0,0 Z " fill="#E4565F" transform="translate(819,472)"/>
<path d="M0,0 Z " fill="#2E0E10" transform="translate(996,470)"/>
<path d="M0,0 Z " fill="#E75962" transform="translate(485,470)"/>
<path d="M0,0 Z " fill="#D7525B" transform="translate(268,470)"/>
<path d="M0,0 Z " fill="#E75761" transform="translate(487,469)"/>
<path d="M0,0 Z " fill="#E7585F" transform="translate(492,463)"/>
<path d="M0,0 Z " fill="#5D2224" transform="translate(932,462)"/>
<path d="M0,0 Z " fill="#EB5A63" transform="translate(796,462)"/>
<path d="M0,0 Z " fill="#DE565D" transform="translate(516,462)"/>
<path d="M0,0 Z " fill="#E15560" transform="translate(508,462)"/>
<path d="M0,0 Z " fill="#D9535C" transform="translate(276,462)"/>
<path d="M0,0 Z " fill="#EE5961" transform="translate(791,461)"/>
<path d="M0,0 Z " fill="#E75862" transform="translate(609,461)"/>
<path d="M0,0 Z " fill="#EE5A63" transform="translate(786,460)"/>
<path d="M0,0 Z " fill="#EE5966" transform="translate(784,459)"/>
<path d="M0,0 Z " fill="#ED5A62" transform="translate(780,458)"/>
<path d="M0,0 Z " fill="#E75862" transform="translate(494,458)"/>
<path d="M0,0 Z " fill="#EF5A64" transform="translate(753,453)"/>
<path d="M0,0 Z " fill="#F15C64" transform="translate(751,453)"/>
<path d="M0,0 Z " fill="#F05964" transform="translate(622,452)"/>
<path d="M0,0 Z " fill="#F05A64" transform="translate(736,451)"/>
<path d="M0,0 Z " fill="#F05C65" transform="translate(726,450)"/>
<path d="M0,0 Z " fill="#EF5B62" transform="translate(719,450)"/>
<path d="M0,0 Z " fill="#EE5863" transform="translate(655,450)"/>
<path d="M0,0 Z " fill="#EF5A64" transform="translate(698,449)"/>
<path d="M0,0 Z " fill="#EE5B65" transform="translate(686,449)"/>
<path d="M0,0 Z " fill="#E35860" transform="translate(588,446)"/>
<path d="M0,0 Z " fill="#EA5963" transform="translate(500,446)"/>
<path d="M0,0 Z " fill="#DB535C" transform="translate(301,444)"/>
<path d="M0,0 Z " fill="#DE535E" transform="translate(305,442)"/>
<path d="M0,0 Z " fill="#E95A62" transform="translate(507,437)"/>
<path d="M0,0 Z " fill="#DF525F" transform="translate(317,437)"/>
<path d="M0,0 Z " fill="#EB5963" transform="translate(508,435)"/>
<path d="M0,0 Z " fill="#EB5863" transform="translate(511,434)"/>
<path d="M0,0 Z " fill="#E65B60" transform="translate(511,431)"/>
<path d="M0,0 Z " fill="#EA5964" transform="translate(519,427)"/>
<path d="M0,0 Z " fill="#E0555E" transform="translate(346,427)"/>
<path d="M0,0 Z " fill="#DB555E" transform="translate(344,427)"/>
<path d="M0,0 Z " fill="#DD545D" transform="translate(348,426)"/>
<path d="M0,0 Z " fill="#D9545A" transform="translate(342,426)"/>
<path d="M0,0 Z " fill="#EB5A63" transform="translate(517,425)"/>
<path d="M0,0 Z " fill="#E2585E" transform="translate(519,423)"/>
<path d="M0,0 Z " fill="#95383C" transform="translate(876,422)"/>
<path d="M0,0 Z " fill="#EC5A66" transform="translate(588,422)"/>
<path d="M0,0 Z " fill="#DF555F" transform="translate(368,422)"/>
<path d="M0,0 Z " fill="#280D0F" transform="translate(172,422)"/>
<path d="M0,0 Z " fill="#EC5665" transform="translate(521,421)"/>
<path d="M0,0 Z " fill="#DF565F" transform="translate(370,421)"/>
<path d="M0,0 Z " fill="#EE5A63" transform="translate(540,419)"/>
<path d="M0,0 Z " fill="#EE5963" transform="translate(538,419)"/>
<path d="M0,0 Z " fill="#EE5964" transform="translate(535,419)"/>
<path d="M0,0 Z " fill="#EF5964" transform="translate(528,419)"/>
<path d="M0,0 Z " fill="#EB5A64" transform="translate(526,419)"/>
<path d="M0,0 Z " fill="#DA535E" transform="translate(368,419)"/>
<path d="M0,0 Z " fill="#EE5963" transform="translate(582,418)"/>
<path d="M0,0 Z " fill="#E2545E" transform="translate(391,418)"/>
<path d="M0,0 Z " fill="#E1545F" transform="translate(388,418)"/>
<path d="M0,0 Z " fill="#E3565F" transform="translate(395,417)"/>
<path d="M0,0 Z " fill="#E4565F" transform="translate(403,416)"/>
<path d="M0,0 Z " fill="#F25A65" transform="translate(654,415)"/>
<path d="M0,0 Z " fill="#F35C66" transform="translate(676,414)"/>
<path d="M0,0 Z " fill="#F45B64" transform="translate(653,414)"/>
<path d="M0,0 Z " fill="#E65561" transform="translate(444,414)"/>
<path d="M0,0 Z " fill="#E35561" transform="translate(436,414)"/>
<path d="M0,0 Z " fill="#EE5B66" transform="translate(714,413)"/>
<path d="M0,0 Z " fill="#F15A64" transform="translate(687,413)"/>
<path d="M0,0 Z " fill="#F25B65" transform="translate(684,413)"/>
<path d="M0,0 Z " fill="#F25964" transform="translate(680,413)"/>
<path d="M0,0 Z " fill="#F05A63" transform="translate(672,413)"/>
<path d="M0,0 Z " fill="#E95660" transform="translate(471,413)"/>
<path d="M0,0 Z " fill="#E65961" transform="translate(460,413)"/>
<path d="M0,0 Z " fill="#E45762" transform="translate(457,413)"/>
<path d="M0,0 Z " fill="#E75561" transform="translate(455,413)"/>
<path d="M0,0 Z " fill="#E45762" transform="translate(449,413)"/>
<path d="M0,0 Z " fill="#F25964" transform="translate(674,412)"/>
<path d="M0,0 Z " fill="#EA5761" transform="translate(506,412)"/>
<path d="M0,0 Z " fill="#EA5762" transform="translate(500,412)"/>
<path d="M0,0 Z " fill="#EA5562" transform="translate(498,412)"/>
<path d="M0,0 Z " fill="#E65761" transform="translate(484,412)"/>
<path d="M0,0 Z " fill="#E75662" transform="translate(480,411)"/>
<path d="M0,0 Z " fill="#E75A63" transform="translate(520,409)"/>
<path d="M0,0 Z " fill="#E55862" transform="translate(521,408)"/>
<path d="M0,0 Z " fill="#EF5C65" transform="translate(732,406)"/>
<path d="M0,0 Z " fill="#F35A65" transform="translate(709,406)"/>
<path d="M0,0 Z " fill="#000000" transform="translate(68,406)"/>
<path d="M0,0 Z " fill="#EC5661" transform="translate(524,405)"/>
<path d="M0,0 Z " fill="#F35A66" transform="translate(719,404)"/>
<path d="M0,0 Z " fill="#EF5B65" transform="translate(733,401)"/>
<path d="M0,0 Z " fill="#E45863" transform="translate(528,401)"/>
<path d="M0,0 Z " fill="#E95761" transform="translate(532,397)"/>
<path d="M0,0 Z " fill="#ED5B62" transform="translate(758,395)"/>
<path d="M0,0 Z " fill="#E55A62" transform="translate(536,392)"/>
<path d="M0,0 Z " fill="#EB5862" transform="translate(776,391)"/>
<path d="M0,0 Z " fill="#EC5962" transform="translate(768,391)"/>
<path d="M0,0 Z " fill="#BB484E" transform="translate(852,390)"/>
<path d="M0,0 Z " fill="#BF494F" transform="translate(444,390)"/>
<path d="M0,0 Z " fill="#170608" transform="translate(172,390)"/>
<path d="M0,0 Z " fill="#0F0303" transform="translate(148,390)"/>
<path d="M0,0 Z " fill="#E75860" transform="translate(539,389)"/>
<path d="M0,0 Z " fill="#E7565F" transform="translate(540,388)"/>
<path d="M0,0 Z " fill="#E85962" transform="translate(783,387)"/>
<path d="M0,0 Z " fill="#E75760" transform="translate(541,387)"/>
<path d="M0,0 Z " fill="#381114" transform="translate(988,382)"/>
<path d="M0,0 Z " fill="#8C3439" transform="translate(900,382)"/>
<path d="M0,0 Z " fill="#CA4E56" transform="translate(844,382)"/>
<path d="M0,0 Z " fill="#D2505B" transform="translate(516,382)"/>
<path d="M0,0 Z " fill="#BC4850" transform="translate(476,382)"/>
<path d="M0,0 Z " fill="#170606" transform="translate(180,382)"/>
<path d="M0,0 Z " fill="#E95961" transform="translate(801,381)"/>
<path d="M0,0 Z " fill="#EA5561" transform="translate(546,381)"/>
<path d="M0,0 Z " fill="#E95862" transform="translate(812,374)"/>
<path d="M0,0 Z " fill="#E4555F" transform="translate(823,373)"/>
<path d="M0,0 Z " fill="#95383F" transform="translate(423,371)"/>
<path d="M0,0 Z " fill="#E65760" transform="translate(555,369)"/>
<path d="M0,0 Z " fill="#E65762" transform="translate(828,366)"/>
<path d="M0,0 Z " fill="#E75861" transform="translate(559,364)"/>
<path d="M0,0 Z " fill="#E75761" transform="translate(834,363)"/>
<path d="M0,0 Z " fill="#000000" transform="translate(4,362)"/>
<path d="M0,0 Z " fill="#E7565F" transform="translate(843,357)"/>
<path d="M0,0 Z " fill="#EA5660" transform="translate(564,357)"/>
<path d="M0,0 Z " fill="#E3575D" transform="translate(853,351)"/>
<path d="M0,0 Z " fill="#3D1315" transform="translate(1020,350)"/>
<path d="M0,0 Z " fill="#DD535C" transform="translate(860,350)"/>
<path d="M0,0 Z " fill="#0A0100" transform="translate(172,350)"/>
<path d="M0,0 Z " fill="#E75961" transform="translate(571,346)"/>
<path d="M0,0 Z " fill="#E45761" transform="translate(572,344)"/>
<path d="M0,0 Z " fill="#E6575F" transform="translate(568,344)"/>
<path d="M0,0 Z " fill="#E1535B" transform="translate(864,343)"/>
<path d="M0,0 Z " fill="#BE4952" transform="translate(892,342)"/>
<path d="M0,0 Z " fill="#E1535D" transform="translate(867,341)"/>
<path d="M0,0 Z " fill="#E95962" transform="translate(577,336)"/>
<path d="M0,0 Z " fill="#290D0E" transform="translate(294,331)"/>
<path d="M0,0 Z " fill="#E85A61" transform="translate(580,329)"/>
<path d="M0,0 Z " fill="#E75762" transform="translate(581,328)"/>
<path d="M0,0 Z " fill="#DF525C" transform="translate(886,327)"/>
<path d="M0,0 Z " fill="#351215" transform="translate(332,326)"/>
<path d="M0,0 Z " fill="#E0545C" transform="translate(893,318)"/>
<path d="M0,0 Z " fill="#DE545C" transform="translate(896,315)"/>
<path d="M0,0 Z " fill="#E45661" transform="translate(584,315)"/>
<path d="M0,0 Z " fill="#DA545A" transform="translate(897,314)"/>
<path d="M0,0 Z " fill="#E35660" transform="translate(585,313)"/>
<path d="M0,0 Z " fill="#6B282C" transform="translate(980,310)"/>
<path d="M0,0 Z " fill="#DA555B" transform="translate(909,303)"/>
<path d="M0,0 Z " fill="#C04B52" transform="translate(924,302)"/>
<path d="M0,0 Z " fill="#DC545C" transform="translate(908,302)"/>
<path d="M0,0 Z " fill="#D44F5A" transform="translate(917,295)"/>
<path d="M0,0 Z " fill="#E75862" transform="translate(592,295)"/>
<path d="M0,0 Z " fill="#000000" transform="translate(180,294)"/>
<path d="M0,0 Z " fill="#E0555D" transform="translate(914,293)"/>
<path d="M0,0 Z " fill="#E75761" transform="translate(595,292)"/>
<path d="M0,0 Z " fill="#DC505C" transform="translate(916,291)"/>
<path d="M0,0 Z " fill="#E85760" transform="translate(596,290)"/>
<path d="M0,0 Z " fill="#DB535B" transform="translate(917,289)"/>
<path d="M0,0 Z " fill="#E75660" transform="translate(595,289)"/>
<path d="M0,0 Z " fill="#DC535B" transform="translate(918,288)"/>
<path d="M0,0 Z " fill="#130204" transform="translate(300,286)"/>
<path d="M0,0 Z " fill="#E85761" transform="translate(597,285)"/>
<path d="M0,0 Z " fill="#140505" transform="translate(324,278)"/>
<path d="M0,0 Z " fill="#E85862" transform="translate(600,267)"/>
<path d="M0,0 Z " fill="#EB5864" transform="translate(601,266)"/>
<path d="M0,0 Z " fill="#D9535A" transform="translate(931,265)"/>
<path d="M0,0 Z " fill="#E95563" transform="translate(600,265)"/>
<path d="M0,0 Z " fill="#AD464B" transform="translate(956,262)"/>
<path d="M0,0 Z " fill="#DD565C" transform="translate(932,262)"/>
<path d="M0,0 Z " fill="#DB545C" transform="translate(935,255)"/>
<path d="M0,0 Z " fill="#030000" transform="translate(268,254)"/>
<path d="M0,0 Z " fill="#E95863" transform="translate(602,249)"/>
<path d="M0,0 Z " fill="#D35259" transform="translate(943,243)"/>
<path d="M0,0 Z " fill="#E95862" transform="translate(602,241)"/>
<path d="M0,0 Z " fill="#060000" transform="translate(308,238)"/>
<path d="M0,0 Z " fill="#DD535F" transform="translate(941,233)"/>
<path d="M0,0 Z " fill="#ED5762" transform="translate(602,233)"/>
<path d="M0,0 Z " fill="#DE555E" transform="translate(942,228)"/>
<path d="M0,0 Z " fill="#4A191C" transform="translate(479,227)"/>
<path d="M0,0 Z " fill="#E95863" transform="translate(600,222)"/>
<path d="M0,0 Z " fill="#000000" transform="translate(276,222)"/>
<path d="M0,0 Z " fill="#DA505C" transform="translate(943,215)"/>
<path d="M0,0 Z " fill="#D6555D" transform="translate(943,210)"/>
<path d="M0,0 Z " fill="#B0464D" transform="translate(964,206)"/>
<path d="M0,0 Z " fill="#4D1C20" transform="translate(476,198)"/>
<path d="M0,0 Z " fill="#010000" transform="translate(300,198)"/>
<path d="M0,0 Z " fill="#000000" transform="translate(268,190)"/>
<path d="M0,0 Z " fill="#E45860" transform="translate(590,183)"/>
<path d="M0,0 Z " fill="#E65760" transform="translate(589,181)"/>
<path d="M0,0 Z " fill="#DC535B" transform="translate(939,171)"/>
<path d="M0,0 Z " fill="#E7585F" transform="translate(584,170)"/>
<path d="M0,0 Z " fill="#E0545E" transform="translate(577,165)"/>
<path d="M0,0 Z " fill="#E7565F" transform="translate(580,161)"/>
<path d="M0,0 Z " fill="#89363B" transform="translate(980,158)"/>
<path d="M0,0 Z " fill="#DC535C" transform="translate(932,150)"/>
<path d="M0,0 Z " fill="#E3565E" transform="translate(573,150)"/>
<path d="M0,0 Z " fill="#E4565E" transform="translate(571,149)"/>
<path d="M0,0 Z " fill="#E6535F" transform="translate(572,148)"/>
<path d="M0,0 Z " fill="#E6535D" transform="translate(571,146)"/>
<path d="M0,0 Z " fill="#E85760" transform="translate(569,143)"/>
<path d="M0,0 Z " fill="#DD525A" transform="translate(926,135)"/>
<path d="M0,0 Z " fill="#E65660" transform="translate(563,135)"/>
<path d="M0,0 Z " fill="#DB535B" transform="translate(925,133)"/>
<path d="M0,0 Z " fill="#DD555B" transform="translate(924,131)"/>
<path d="M0,0 Z " fill="#E5535C" transform="translate(557,127)"/>
<path d="M0,0 Z " fill="#E6545F" transform="translate(556,126)"/>
<path d="M0,0 Z " fill="#110203" transform="translate(300,126)"/>
<path d="M0,0 Z " fill="#E65460" transform="translate(555,125)"/>
<path d="M0,0 Z " fill="#E15560" transform="translate(552,125)"/>
<path d="M0,0 Z " fill="#E3565E" transform="translate(553,124)"/>
<path d="M0,0 Z " fill="#DB535B" transform="translate(919,122)"/>
<path d="M0,0 Z " fill="#E6565E" transform="translate(552,121)"/>
<path d="M0,0 Z " fill="#DE575C" transform="translate(918,120)"/>
<path d="M0,0 Z " fill="#E4535E" transform="translate(547,116)"/>
<path d="M0,0 Z " fill="#2B0E0F" transform="translate(332,102)"/>
<path d="M0,0 Z " fill="#E2555E" transform="translate(530,100)"/>
<path d="M0,0 Z " fill="#E4545F" transform="translate(529,99)"/>
<path d="M0,0 Z " fill="#DC505C" transform="translate(902,98)"/>
<path d="M0,0 Z " fill="#E4555F" transform="translate(528,98)"/>
<path d="M0,0 Z " fill="#DE545C" transform="translate(901,97)"/>
<path d="M0,0 Z " fill="#E2535D" transform="translate(525,95)"/>
<path d="M0,0 Z " fill="#010000" transform="translate(180,94)"/>
<path d="M0,0 Z " fill="#E6555E" transform="translate(520,91)"/>
<path d="M0,0 Z " fill="#DB545B" transform="translate(895,90)"/>
<path d="M0,0 Z " fill="#551D21" transform="translate(372,86)"/>
<path d="M0,0 Z " fill="#DE535D" transform="translate(512,85)"/>
<path d="M0,0 Z " fill="#DE525B" transform="translate(500,78)"/>
<path d="M0,0 Z " fill="#DC565C" transform="translate(882,77)"/>
<path d="M0,0 Z " fill="#E0525B" transform="translate(500,76)"/>
<path d="M0,0 Z " fill="#DF545B" transform="translate(498,75)"/>
<path d="M0,0 Z " fill="#E3565D" transform="translate(877,74)"/>
<path d="M0,0 Z " fill="#E0515C" transform="translate(496,73)"/>
<path d="M0,0 Z " fill="#DA525A" transform="translate(484,70)"/>
<path d="M0,0 Z " fill="#1E0B0A" transform="translate(276,70)"/>
<path d="M0,0 Z " fill="#DF525A" transform="translate(871,69)"/>
<path d="M0,0 Z " fill="#DE555C" transform="translate(479,63)"/>
<path d="M0,0 Z " fill="#96383D" transform="translate(916,62)"/>
<path d="M0,0 Z " fill="#B9444D" transform="translate(892,62)"/>
<path d="M0,0 Z " fill="#DF545B" transform="translate(477,62)"/>
<path d="M0,0 Z " fill="#C54B52" transform="translate(452,62)"/>
<path d="M0,0 Z " fill="#DD525D" transform="translate(473,61)"/>
<path d="M0,0 Z " fill="#E5545C" transform="translate(855,58)"/>
<path d="M0,0 Z " fill="#E0535D" transform="translate(470,58)"/>
<path d="M0,0 Z " fill="#DF525C" transform="translate(859,57)"/>
<path d="M0,0 Z " fill="#E0555D" transform="translate(852,56)"/>
<path d="M0,0 Z " fill="#DD525D" transform="translate(463,54)"/>
<path d="M0,0 Z " fill="#7B2F32" transform="translate(364,54)"/>
<path d="M0,0 Z " fill="#E5555E" transform="translate(843,50)"/>
<path d="M0,0 Z " fill="#E6535E" transform="translate(840,49)"/>
<path d="M0,0 Z " fill="#DF545C" transform="translate(839,48)"/>
<path d="M0,0 Z " fill="#D95059" transform="translate(444,47)"/>
<path d="M0,0 Z " fill="#B2444B" transform="translate(404,46)"/>
<path d="M0,0 Z " fill="#E6555D" transform="translate(831,45)"/>
<path d="M0,0 Z " fill="#DD515B" transform="translate(445,45)"/>
<path d="M0,0 Z " fill="#D9525B" transform="translate(440,43)"/>
<path d="M0,0 Z " fill="#E05560" transform="translate(823,40)"/>
<path d="M0,0 Z " fill="#DD5058" transform="translate(429,38)"/>
<path d="M0,0 Z " fill="#DB535B" transform="translate(424,37)"/>
<path d="M0,0 Z " fill="#EA545F" transform="translate(812,36)"/>
<path d="M0,0 Z " fill="#E7555E" transform="translate(812,33)"/>
<path d="M0,0 Z " fill="#EB585F" transform="translate(804,33)"/>
<path d="M0,0 Z " fill="#E5565F" transform="translate(803,32)"/>
<path d="M0,0 Z " fill="#DD555B" transform="translate(411,31)"/>
<path d="M0,0 Z " fill="#E95961" transform="translate(796,30)"/>
<path d="M0,0 Z " fill="#DB545A" transform="translate(408,30)"/>
<path d="M0,0 Z " fill="#D85259" transform="translate(403,29)"/>
<path d="M0,0 Z " fill="#DB515C" transform="translate(404,28)"/>
<path d="M0,0 Z " fill="#EE5660" transform="translate(788,27)"/>
<path d="M0,0 Z " fill="#EE5660" transform="translate(784,26)"/>
<path d="M0,0 Z " fill="#D7505A" transform="translate(385,22)"/>
<path d="M0,0 Z " fill="#EC5861" transform="translate(764,20)"/>
<path d="M0,0 Z " fill="#ED5863" transform="translate(757,18)"/>
<path d="M0,0 Z " fill="#EA5860" transform="translate(749,16)"/>
<path d="M0,0 Z " fill="#EE5961" transform="translate(747,16)"/>
<path d="M0,0 Z " fill="#ED5963" transform="translate(748,14)"/>
<path d="M0,0 Z " fill="#CA4D55" transform="translate(356,14)"/>
<path d="M0,0 Z " fill="#BD4950" transform="translate(348,14)"/>
<path d="M0,0 Z " fill="#EC5660" transform="translate(735,13)"/>
<path d="M0,0 Z " fill="#C94B56" transform="translate(354,13)"/>
<path d="M0,0 Z " fill="#ED5961" transform="translate(732,12)"/>
<path d="M0,0 Z " fill="#F05964" transform="translate(730,12)"/>
<path d="M0,0 Z " fill="#C64A4F" transform="translate(350,12)"/>
<path d="M0,0 Z " fill="#C04750" transform="translate(347,12)"/>
<path d="M0,0 Z " fill="#F15A63" transform="translate(728,11)"/>
<path d="M0,0 Z " fill="#ED5761" transform="translate(711,8)"/>
<path d="M0,0 Z " fill="#F25A64" transform="translate(700,6)"/>
<path d="M0,0 Z " fill="#8E343B" transform="translate(324,6)"/>
<path d="M0,0 Z " fill="#F25962" transform="translate(695,5)"/>
<path d="M0,0 Z " fill="#EF5863" transform="translate(684,4)"/>
<path d="M0,0 Z " fill="#F15A63" transform="translate(695,2)"/>
<path d="M0,0 Z " fill="#EF5A60" transform="translate(670,2)"/>
<path d="M0,0 Z " fill="#F45964" transform="translate(668,2)"/>
<path d="M0,0 Z " fill="#F25963" transform="translate(665,2)"/>
<path d="M0,0 Z " fill="#D35057" transform="translate(356,2)"/>
<path d="M0,0 Z " fill="#DE535A" transform="translate(363,1)"/>
</svg>
